<?xml version="1.0" encoding="utf-8"?>
<!-- Generator: Adobe Illustrator 19.0.0, SVG Export Plug-In . SVG Version: 6.00 Build 0)  -->
<svg version="1.1" id="Camada_1" xmlns="http://www.w3.org/2000/svg" xmlns:xlink="http://www.w3.org/1999/xlink" x="0px" y="0px"
	 viewBox="0 0 69.9 9.6" style="enable-background:new 0 0 69.9 9.6;" xml:space="preserve">
<style type="text/css">
	.st0{fill:#FFFFFF;}
</style>
<g id="XMLID_105_">
	<path id="XMLID_108_" class="st0" d="M4.9,0C2.1,0,0,2.1,0,4.8c0,2.7,2.1,4.8,4.9,4.8c2.8,0,4.9-2.1,4.9-4.8C9.8,2.1,7.7,0,4.9,0z
		 M4.9,7.5c-1.5,0-2.6-1.2-2.6-2.7c0-1.4,1.1-2.7,2.6-2.7s2.6,1.2,2.6,2.7C7.4,6.2,6.4,7.5,4.9,7.5z"/>
	<polygon id="XMLID_107_" class="st0" points="19,0.2 16.3,0.2 12.6,4.4 12.6,0.2 10.3,0.2 10.3,9.4 12.6,9.4 12.6,7.5 14,6 
		16.5,9.4 19.3,9.4 15.5,4.2 	"/>
	<polygon id="XMLID_106_" class="st0" points="26.1,0.2 26.1,5.4 21.6,0.2 19.9,0.2 19.9,9.4 22.2,9.4 22.2,4.3 26.6,9.4 28.4,9.4 
		28.4,0.2 	"/>
</g>
<g id="XMLID_5_">
	<g id="XMLID_2_">
		<path id="XMLID_222_" class="st0" d="M35.4,0.8c1.7,0,2.6,0.8,3.1,1.6l0.1,0.2l0.5-0.4L39,2c-0.9-1.2-2.1-1.8-3.6-1.8
			c-2.5,0-4.5,2-4.5,4.5s2,4.5,4.5,4.5c1.7,0,3-0.9,3.6-1.7l0-0.1V5.5h-2.5v0.6h1.9v1.1c-0.6,0.7-1.6,1.3-3,1.3
			c-2.1,0-3.8-1.7-3.8-3.9C31.5,2.6,33.3,0.8,35.4,0.8z"/>
		<path id="XMLID_221_" class="st0" d="M45.9,3.2c0-1.6-1.3-2.9-2.9-2.9h-2.7v8.8h0.6V0.9H43c1.3,0,2.2,1,2.2,2.3
			c0,1.3-1,2.3-2.2,2.3h-0.9L45,9.1h0.9l-2.5-3C44.8,5.9,45.9,4.7,45.9,3.2z"/>
		<path id="XMLID_198_" class="st0" d="M50.8,0.2c-2.5,0-4.5,2-4.5,4.5s2,4.5,4.5,4.5c2.5,0,4.5-2,4.5-4.5S53.2,0.2,50.8,0.2z
			 M50.8,8.6c-2.1,0-3.8-1.7-3.8-3.9c0-2.1,1.7-3.9,3.8-3.9c2.1,0,3.8,1.7,3.8,3.9C54.6,6.8,52.9,8.6,50.8,8.6z"/>
		<path id="XMLID_197_" class="st0" d="M62.5,5.5c0,1.9-1.1,3.1-2.9,3.1c-1.8,0-2.9-1.1-2.9-3.1V0.3H56v5.2c0,2.3,1.3,3.7,3.6,3.7
			c2.2,0,3.6-1.4,3.6-3.7V0.3h-0.6V5.5z"/>
		<path id="XMLID_194_" class="st0" d="M67,0.3h-2.7v8.8h0.6v-3H67c1.6,0,2.9-1.3,2.9-2.9C69.9,1.6,68.6,0.3,67,0.3z M67,5.5h-2.1
			V0.9H67c1.3,0,2.2,1,2.2,2.3C69.3,4.5,68.3,5.5,67,5.5z"/>
	</g>
</g>
</svg>
