<?xml version="1.0" encoding="UTF-8"?>
<!DOCTYPE svg PUBLIC "-//W3C//DTD SVG 1.1//EN" "http://www.w3.org/Graphics/SVG/1.1/DTD/svg11.dtd">
<!-- Creator: CorelDRAW 2019 (64-Bit Evaluation Version) -->
<svg xmlns="http://www.w3.org/2000/svg" xml:space="preserve" width="767px" height="471px" version="1.1" style="shape-rendering:geometricPrecision; text-rendering:geometricPrecision; image-rendering:optimizeQuality; fill-rule:evenodd; clip-rule:evenodd"
viewBox="0 0 767 471.04"
 xmlns:xlink="http://www.w3.org/1999/xlink"
 xmlns:xodm="http://www.corel.com/coreldraw/odm/2003">
 <defs>
  <style type="text/css">
   <![CDATA[
    .fil0 {fill:#373435}
    .fil1 {fill:#373435;fill-rule:nonzero}
   ]]>
  </style>
 </defs>
 <g id="Layer_x0020_1">
  <metadata id="CorelCorpID_0Corel-Layer"/>
  <path class="fil0" d="M0.52 270.24l0 -40.37 66.4 0c16.69,0 28.29,-7.08 34.77,-21.26 2.2,-4.78 3.3,-10.34 3.3,-16.71 0,-14.91 -3.45,-25.86 -10.34,-32.83 -6.35,-6.24 -15.58,-9.36 -27.73,-9.36l-20.68 0 0 69.35 -45.72 0 0 -117.58c8,-21.28 23.24,-37.12 45.72,-47.52l0 56.68 20.68 0c15.32,0 25.6,-6.18 30.83,-18.52 1.93,-4.65 2.9,-10.34 2.9,-17.07 0,-11.11 -3.31,-19.62 -9.94,-25.49 -6.2,-5.26 -14.13,-7.89 -23.79,-7.89l-20.68 0c-18.48,7.22 -33.72,18.22 -45.72,33.03l0 -74.12 64.76 0c17.93,0 34.19,4.22 48.82,12.67 12.55,7.2 21.44,18.27 26.68,33.19 2.9,8.07 4.35,17.61 4.35,28.61 0,18.11 -5.37,32.61 -16.14,43.48 -4.55,4.65 -9.86,8.2 -15.92,10.64 10.06,3.42 18.67,10.22 25.86,20.37 4.69,6.96 8.12,15.83 10.34,26.6 1.1,5.61 1.66,11.85 1.66,18.71 0,17.12 -3.67,31.6 -10.98,43.47 -5.52,9.3 -13.44,16.75 -23.79,22.38 -11.72,6.35 -23.3,9.54 -34.75,9.54l-80.89 0zm223.63 0l-45.72 0 0 -180.69c8.01,-21.28 23.25,-37.12 45.72,-47.52l0 228.21zm-45.72 -269.47l45.72 0 0 28.98c-18.48,7.22 -33.72,18.22 -45.72,33.02l0 -62zm119.37 40.9l-48.82 0 0 -40.9 143.16 0 0 40.9 -48.62 0c-18.33,7.22 -33.51,18.22 -45.51,33.03l-0.21 1.46 0 -34.49zm45.72 179.22l-45.72 0 0 -119.41c8.14,-21.28 23.39,-37.12 45.72,-47.52l0 166.93zm0 10.82l0 38.53 -45.72 0 0 -38.53 45.72 0zm73.44 -231.13l45.72 0 0 29.17c-18.47,7.22 -33.72,18.22 -45.72,33.02l0 -62.19zm161.37 269.66l-53.78 0 -40.76 -92.82c43.16,26.9 72.75,53.57 88.76,79.97l5.78 12.85zm-161.37 -180.69c8.01,-21.28 23.25,-37.12 45.72,-47.52l0 54.68 56.07 -96.13 49.04 0 -62.9 109.88 46.55 101.08c-21.25,-17.62 -46.27,-34.55 -75.1,-50.81l-13.66 24.21 0 132.9 -45.72 0 0 -228.29zm45.72 268.84l-45.72 0 0 -40.55 45.72 0 0 40.55zm195.92 -150.33l-11.17 62.18 -47.79 0 27.93 -146.2c9.25,-21.65 26.83,-37.79 52.76,-48.44l-14.69 92.83 33.93 0 -17.18 -105.85c-19.03,6.24 -35.09,15.42 -48.19,27.52l17.16 -89.33 62.9 0 45.51 240.86c-14.75,-13.46 -32.55,-24.65 -53.38,-33.57l-47.79 0zm58.56 62.18l-8.48 -48.8c26.47,13.08 45.29,29.35 56.47,48.8l-47.99 0zm-345.9 88.15l-370.74 0 0 -40.55 370.74 0 0 40.55zm393.89 -40.55l0 40.55 -256.74 0 0 -40.55 256.74 0z"/>
  <path class="fil1" d="M44.54 470.08l19.5 0 4.16 -11.65 25.64 0 4.15 11.65 20.48 0 -25.06 -67.27 -23.38 0 -25.49 67.27zm36.64 -54.29c1.79,7.26 6.25,21.18 9.71,32.83l-19.73 0c3.61,-11.65 8.04,-25.57 10.02,-32.83zm122.71 -12.98l-16.98 0 0 34.76c0,2.85 0.43,6.14 0.43,7.48l-0.32 0c-9.58,-14.02 -19.18,-28.23 -28.94,-42.24l-17.4 0 0 67.27 16.98 0 0 -34.85c0,-3.08 -0.39,-6.25 -0.39,-7.57l0.12 0 29.25 42.42 17.25 0 0 -67.27zm21.67 67.27l19.5 0 4.15 -11.65 25.61 0 4.19 11.65 20.43 0 -25.02 -67.27 -23.38 0 -25.48 67.27zm36.59 -54.29c1.83,7.26 6.29,21.18 9.76,32.83l-19.78 0c3.65,-11.65 8.08,-25.57 10.02,-32.83zm104.76 54.29l1.28 -11.56 -27.14 0 0 -55.71 -19.36 0 0 67.27 45.22 0zm51.78 -22.18l2.37 -4.08c8.32,-13.61 16.55,-27.31 24.9,-41.01l-20.74 0c-6.41,12.47 -13.64,26.8 -16.28,32.31 -2.64,-5.51 -9.9,-19.84 -16.28,-32.31l-20.74 0c8.35,13.7 16.55,27.4 24.9,41.01l2.53 4.08 0 22.18 19.34 0 0 -22.18zm102.12 -45.09l-57.22 0 0 11.56 18.92 0 0 55.71 19.35 0 0 -55.71 18.79 0 0.16 -11.56zm42.14 0l-19.34 0 0 67.27 19.34 0 0 -67.27zm45.61 33.73c0,-15.95 4.58,-23.71 20.47,-23.71 6.68,0 12.66,1.73 15.31,2.57 0.81,-3.6 1.67,-7.17 2.63,-10.77 -2.37,-0.48 -9.74,-3.17 -21.28,-3.17 -24.63,0 -37.29,11.48 -37.29,35.08 0,23.64 12.66,35.08 37.29,35.08 11.54,0 18.91,-2.65 21.28,-3.17 -0.96,-3.57 -1.82,-7.16 -2.63,-10.73 -2.65,0.8 -8.63,2.54 -15.31,2.54 -15.89,0 -20.47,-7.76 -20.47,-23.72zm87.78 -34.96c-18.48,0 -29.36,7.48 -29.36,19.44 0,19.83 34.53,20.12 34.53,31.48 0,5.3 -6.96,7.68 -13.63,7.68 -7.54,0 -15.2,-3.37 -17.99,-4.11l-4.42 10.33c3.06,0.82 11.26,5.02 25.16,5.02 20.2,0 30.49,-7.57 30.49,-20.23 0,-18.93 -34.52,-19.13 -34.52,-31.51 0,-2.86 3.34,-7.45 11.84,-7.45 7.5,0 15.16,3.37 17.95,4.08l4.46 -10.33c-3.07,-0.83 -10.6,-4.4 -24.51,-4.4z"/>
 </g>
</svg>
